<?xml version="1.0" encoding="utf-8"?>
<!-- Generator: Adobe Illustrator 13.0.2, SVG Export Plug-In . SVG Version: 6.00 Build 14948)  -->
<!DOCTYPE svg PUBLIC "-//W3C//DTD SVG 1.1//EN" "http://www.w3.org/Graphics/SVG/1.1/DTD/svg11.dtd">
<svg version="1.1" xmlns="http://www.w3.org/2000/svg" xmlns:xlink="http://www.w3.org/1999/xlink" x="0px" y="0px" width="300px"
	 height="200px" viewBox="-33.267 16.733 300 200" enable-background="new -33.267 16.733 300 200" xml:space="preserve">
<g id="Layer_2">
	<linearGradient id="SVGID_1_" gradientUnits="userSpaceOnUse" x1="116.7339" y1="216.7329" x2="116.7339" y2="16.7334">
		<stop  offset="0" style="stop-color:#295895"/>
		<stop  offset="1" style="stop-color:#5284BA"/>
	</linearGradient>
	<rect x="-33.267" y="16.733" fill="url(#SVGID_1_)" width="300" height="200"/>
</g>
<g id="Layer_1">
	<path fill="#FFFFFF" d="M88.714,134.347H74.273l1.869,6.651h19.187c14.869,0,24.605-4.792,25.678-13.961
		c1.846-15.805-27.367-20.046-27.367-27.357c0-3.164,2.949-5.244,9.84-5.244h11.988v-6.651c0,0-9.571,0-15.671,0
		c-15.208,0-22.661,4.735-23.578,12.823c-1.631,14.371,23.444,17.383,25.089,26.215C102.22,131.693,97.268,134.347,88.714,134.347z"
		/>
	<polygon fill="#FFFFFF" points="34.966,142.659 51.806,139.329 51.806,94.436 70.062,94.436 70.062,87.785 15.295,87.785 
		17.167,94.436 34.966,94.436 	"/>
	<path fill="#FFFFFF" d="M208.616,72.774h-22.521c4.001-14.377,6.135-29.409,6.135-44.88l-14.115,5.014
		c-2.579,80.898-67.414,147.968-153.459,164.752l-1.799,4.842c38.096-6.909,72.26-23.411,99.165-46.536h16.376l21.541-27.447
		l21.53,27.447h27.147l-35.866-41.573L208.616,72.774z"/>
	<path fill="#FFFFFF" d="M154.053,100.978l-11.144-13.193h-18.721l22.308,25.832C149.396,109.816,152.168,105.289,154.053,100.978z"
		/>
</g>
</svg>
